<?xml version="1.0" encoding="UTF-8" standalone="no"?>
<svg
   xmlns:dc="http://purl.org/dc/elements/1.1/"
   xmlns:cc="http://creativecommons.org/ns#"
   xmlns:rdf="http://www.w3.org/1999/02/22-rdf-syntax-ns#"
   xmlns:svg="http://www.w3.org/2000/svg"
   xmlns="http://www.w3.org/2000/svg"
   xmlns:sodipodi="http://sodipodi.sourceforge.net/DTD/sodipodi-0.dtd"
   xmlns:inkscape="http://www.inkscape.org/namespaces/inkscape"
   width="131.75732mm"
   height="134.55922mm"
   viewBox="0 0 131.75732 134.55922"
   version="1.1"
   id="svg8"
   inkscape:version="1.0.1 (3bc2e813f5, 2020-09-07)"
   sodipodi:docname="fundoPokemon.svg">
  <defs
     id="defs2" />
  <sodipodi:namedview
     id="base"
     pagecolor="#ffffff"
     bordercolor="#666666"
     borderopacity="1.0"
     inkscape:pageopacity="0.0"
     inkscape:pageshadow="2"
     inkscape:zoom="0.35"
     inkscape:cx="264.46472"
     inkscape:cy="394.39768"
     inkscape:document-units="mm"
     inkscape:current-layer="layer1"
     inkscape:document-rotation="0"
     showgrid="false"
     inkscape:window-width="1350"
     inkscape:window-height="727"
     inkscape:window-x="0"
     inkscape:window-y="0"
     inkscape:window-maximized="0"
     fit-margin-top="0"
     fit-margin-left="0"
     fit-margin-right="0"
     fit-margin-bottom="0" />
  <metadata
     id="metadata5">
    <rdf:RDF>
      <cc:Work
         rdf:about="">
        <dc:format>image/svg+xml</dc:format>
        <dc:type
           rdf:resource="http://purl.org/dc/dcmitype/StillImage" />
        <dc:title />
      </cc:Work>
    </rdf:RDF>
  </metadata>
  <g
     inkscape:label="Layer 1"
     inkscape:groupmode="layer"
     id="layer1"
     transform="translate(-41.088447,-37.797692)">
    <path
       id="path835"
       style="fill:#e9e9e9;fill-opacity:0.56666666;stroke-width:0.999999;paint-order:markers stroke fill;stop-color:#000000;opacity:0.5"
       d="m 404.28516,142.85742 a 254.28571,254.28571 0 0 0 -248.99024,202.6582 h 95.28711 A 162.14286,162.14286 0 0 1 404.28516,235 162.14286,162.14286 0 0 1 557.98828,345.51562 h 95.28711 A 254.28571,254.28571 0 0 0 404.28516,142.85742 Z m -0.31446,160 A 94.285712,94.285712 0 0 0 310,397.14258 a 94.285712,94.285712 0 0 0 94.28516,94.28515 94.285712,94.285712 0 0 0 94.28711,-94.28515 94.285712,94.285712 0 0 0 -94.28711,-94.28516 94.285712,94.285712 0 0 0 -0.31446,0 z M 155.29688,448.76953 a 254.28571,254.28571 0 0 0 248.98828,202.6582 254.28571,254.28571 0 0 0 248.99023,-202.6582 H 557.98828 A 162.14286,162.14286 0 0 1 404.28516,559.28516 162.14286,162.14286 0 0 1 250.58203,448.76953 Z"
       transform="scale(0.26458333)" />
  </g>
</svg>
